# xmcd
#
# Track frame offsets: 
#        150
#        24498
#        46612
#        69952
#        110789
#        139032
#        176765
#        205164
#        233050
#        267980
#        287108
#
# Disc length: 4494 seconds
#
# Revision: 1
# Processed by: cddbd v1.5.2PL0 Copyright (c) Steve Scherf et al.
# Submitted via: ExactAudioCopyFreeDBPlugin 1.0
#
DISCID=9b118c0b
DTITLE=Gov't Mule - Shout!
DYEAR=2013
DGENRE=Blues Rock
TTITLE0=World Boss feat. Ben Harper
TTITLE1=Funny Little Tragedy feat. Elvis Costello
TTITLE2=Stoop so Low feat. Dr. John
TTITLE3=Captured feat. Jim James
TTITLE4=Whisper in Your Soul feat. Grace Potter
TTITLE5=Scared to Live feat. Toots Hibbert
TTITLE6=No Reward feat. Glenn Hughes
TTITLE7=Bring on the Music feat. Ty Taylor
TTITLE8=Forsaken Savior feat. Dave Matthews
TTITLE9=Done Got Wise feat. Myles Kennedy
TTITLE10=When the World gets Small feat. Steve Winwood
EXTD=
EXTT0=
EXTT1=
EXTT2=
EXTT3=
EXTT4=
EXTT5=
EXTT6=
EXTT7=
EXTT8=
EXTT9=
EXTT10=
PLAYORDER=
